# xmcd CD database file
#
# Track frame offsets:
#	183
#	14813
#	34670
#	42775
#	56343
#	82673
#	99323
#	117175
#	129195
#	144308
#	171450
#	180868
#	191228
#	207490
#	219900
#	230915
#	247498
#	258593
#	269350
#	281225
#
# Disc length: 3916 seconds
#
# Revision: 0
# Processed by: cddbd v1.5.1PL0 Copyright (c) Steve Scherf et al.
# Submitted via: CDex 1.60beta1
#
DISCID=280f4a14
DTITLE=Burrito Brothers - Back To The Sweethearts Of Rodeo
DYEAR=1987
DGENRE=Country
TTITLE0=Back To The Sweethearts Of The Rodeo
TTITLE1=Burning Embers
TTITLE2=Red Shoes
TTITLE3=Shoot For The Moon
TTITLE4=Moonlight Rider
TTITLE5=Gold Guitar
TTITLE6=True True Love
TTITLE7=I'm Impressed
TTITLE8=Let's Do Something Crazy
TTITLE9=Like A Shadow
TTITLE10=I Don't Believe You Met My Baby
TTITLE11=My Heart Skips A Beat
TTITLE12=Take A Message To Mary
TTITLE13=Last Call
TTITLE14=You're Running Wild
TTITLE15=This Could Be The Night
TTITLE16=My Shoes Keep Walking Back To You
TTITLE17=You Should Know Me By Now
TTITLE18=I've Got A New Heartache
TTITLE19=Roadmaster
EXTD=YEAR: 1987
EXTT0=
EXTT1=
EXTT2=
EXTT3=
EXTT4=
EXTT5=
EXTT6=
EXTT7=
EXTT8=
EXTT9=
EXTT10=
EXTT11=
EXTT12=
EXTT13=
EXTT14=
EXTT15=
EXTT16=
EXTT17=
EXTT18=
EXTT19=
PLAYORDER=
